<?xml version="1.0" standalone="no"?>
<!DOCTYPE svg PUBLIC "-//W3C//DTD SVG 20010904//EN"
 "http://www.w3.org/TR/2001/REC-SVG-20010904/DTD/svg10.dtd">
<svg version="1.0" xmlns="http://www.w3.org/2000/svg"
 width="150.000000pt" height="110.000000pt" viewBox="0 0 150.000000 110.000000"
 preserveAspectRatio="xMidYMid meet">

<g transform="translate(0.000000,110.000000) scale(0.100000,-0.100000)"
fill="#000000" stroke="none">
<path d="M316 992 c-3 -5 9 -55 26 -113 26 -90 36 -110 74 -149 l44 -45 -35
-58 c-19 -32 -35 -64 -35 -72 0 -7 37 -48 83 -92 l84 -78 26 -97 c15 -53 25
-103 22 -110 -2 -7 8 -31 23 -53 31 -45 73 -62 114 -46 29 11 83 85 73 101 -3
5 7 53 22 107 l27 98 84 80 85 81 -38 72 -38 73 42 43 c35 36 45 57 71 146 17
61 26 108 21 113 -5 5 -58 -12 -126 -42 l-117 -51 -134 0 -134 0 -125 50
c-138 55 -132 53 -139 42z m317 -473 c-7 -25 -26 -14 -61 35 -21 29 -28 46
-21 53 15 15 88 -65 82 -88z m214 35 c-28 -41 -67 -59 -67 -33 0 22 74 96 87
87 8 -7 3 -21 -20 -54z m-162 -362 c0 -18 -20 -15 -23 4 -3 10 1 15 10 12 7
-3 13 -10 13 -16z m71 -19 c-11 -11 -19 6 -11 24 8 17 8 17 12 0 3 -10 2 -21
-1 -24z"/>
</g>
</svg>
